<?xml version="1.0" encoding="UTF-8"?>
<svg id="Layer_1" data-name="Layer 1" xmlns="http://www.w3.org/2000/svg" viewBox="0 0 600 600">
  <defs>
    <style>
      .cls-1 {
        fill: #e0e0df;
      }
    </style>
  </defs>
  <rect class="cls-1" x="26.74" y="406.36" width="546.53" height="33.21"/>
  <g>
    <rect class="cls-1" x="484.99" y="319.1" width="14.78" height="62.66"/>
    <ellipse class="cls-1" cx="492.38" cy="362.62" rx="11.48" ry="8.74"/>
    <path class="cls-1" d="M492.84,379.67c-.28-.21-.55-.21-.83,0-2.12,2.5-5.02.25-7.02,2.08,2.12,4.79,4.06,9.57,6.28,14.36.83,1.04,1.94.83,2.68-.62,1.29-3.12,2.68-6.24,4.06-9.36.55-1.25,1.2-2.92,1.75-4.37-2.56-1.83-4.8.63-6.93-2.08Z"/>
    <g>
      <path class="cls-1" d="M255.33,323.35c2.96-1.28,4.44-3.83,4.44-6.39v-48.57c0-3.83-1.48-5.11-5.92-5.11h-50.36c-4.44-.64-5.18,1.28-5.18,4.47v24.92c0,7.67,0,15.34,0,23.65-.74,3.2,1.48,5.75,4.44,7.03,16.29,7.67,36.29,7.67,52.58,0Z"/>
      <path class="cls-1" d="M270.88,336.77c-2.22-.64-4.44-.64-6.67,0-17.03,7.67-37.03,10.23-56.29,6.39,17.03,14.7,32.59,29.4,50.36,44.1,6.67,3.2,15.55,2.56,21.48-1.92,10.37-9.59,21.48-19.17,32.59-28.76,4.44-3.83,9.63-8.31,14.07-12.78-18.52,3.2-38.51,1.28-55.55-7.03Z"/>
      <path class="cls-1" d="M331.3,263.27h-50.36c-4.44-.64-5.18,1.28-5.18,4.47v24.92c0,7.67,0,15.34,0,23.65-.74,3.2,1.48,5.75,4.44,7.03,16.29,7.67,36.29,7.67,52.58,0,2.96-1.28,4.44-3.83,4.44-6.39v-48.57c0-3.83-1.48-5.11-5.92-5.11Z"/>
    </g>
    <path class="cls-1" d="M71.38,160.08v33.74c0,4.39,3.84,7.95,8.58,7.95h26.13v38.59c0,4.39,3.84,7.95,8.58,7.95h306.04c4.74,0,8.58-3.56,8.58-7.95v-38.59h26.13c4.74,0,8.58-3.56,8.58-7.95v-33.74H71.38Z"/>
    <rect class="cls-1" x="456.14" y="160.08" width="72.48" height="185.67"/>
  </g>
</svg>