<?xml version="1.0" encoding="UTF-8"?>
<svg id="Layer_1" data-name="Layer 1" xmlns="http://www.w3.org/2000/svg" viewBox="0 0 600 600">
  <defs>
    <style>
      .cls-1 {
        fill: #e0e0df;
      }
    </style>
  </defs>
  <path class="cls-1" d="M255.31,327.69c0-19.51-6.74-26.86-16.78-26.86s-16.45,8.63-16.45,26.86,5.83,27.41,16.54,27.41,16.69-8.58,16.69-27.41Z"/>
  <path class="cls-1" d="M361.78,383.65c-9.99,0-16.45,8.75-16.45,26.86s5.83,27.41,16.54,27.41,16.69-8.58,16.69-27.41-6.74-26.86-16.78-26.86Z"/>
  <path class="cls-1" d="M449.58,327.94c-9.19-27.43-22.91-56.81-39.06-86.46v-.62c-4.41-7.77-8.87-15.46-13.38-23.1-9.66-16.58-19.91-33.1-30.39-49.28-20.83-32.39-42.93-64.13-66.74-96.06,0,0,0,.01-.01.02,0,0,0-.01-.01-.02-23.81,31.93-45.91,63.67-66.75,96.07-10.48,16.17-20.72,32.69-30.38,49.26-4.51,7.64-8.98,15.34-13.38,23.11v.62c-16.15,29.65-29.87,59.04-39.06,86.46-8.34,24.88-8.93,49.01-3.21,74.92,13.55,61.43,60.56,107.13,117.67,120.64,0,.02,0,.05,0,.07,8.81,2.04,17.6,3.27,26.3,3.77.19.01.39.02.58.04.97.05,1.93.09,2.9.12.41.02.82.03,1.23.04.78.02,1.55.03,2.33.04.6,0,1.19.01,1.79.01s1.2,0,1.79-.01c.77,0,1.55-.02,2.33-.04.41-.01.82-.03,1.23-.04.96-.03,1.93-.07,2.9-.12.2-.01.39-.02.58-.04,8.7-.5,17.49-1.73,26.3-3.77,0-.02,0-.05,0-.07,57.11-13.5,104.13-59.21,117.67-120.64,5.72-25.91,5.12-50.04-3.21-74.92ZM195.1,327.75c0-28.92,15.27-51.51,43.46-51.51,25.28,0,43.09,17.57,43.09,51.44,0,30.7-15.89,51.99-43.36,51.99-25.99,0-43.19-17.77-43.19-51.92ZM263.36,458.96h-25.44l98.53-179.68h25.63l-98.72,179.68ZM361.54,462.51c-26.04,0-43.19-17.93-43.19-51.93,0-28.92,15.24-51.51,43.46-51.51,25.34,0,43.09,17.58,43.09,51.45,0,30.66-15.86,51.99-43.36,51.99Z"/>
</svg>