<?xml version="1.0" encoding="UTF-8"?>
<svg id="Layer_1" data-name="Layer 1" xmlns="http://www.w3.org/2000/svg" viewBox="0 0 600 600">
  <defs>
    <style>
      .cls-1 {
        fill: #e0e0df;
      }
    </style>
  </defs>
  <path class="cls-1" d="M299.65,65.83c4.03-.33,7.34.62,10.64,2.05,85.91,37.22,171.85,74.4,257.75,111.65,1.95.85,4.87,1.31,4.88,4.14.02,3.13-2.91,3.6-5.19,4.51-85.74,34.33-171.49,68.67-257.23,103.01-7.05,2.82-14.09,2.78-21.14-.04-85.18-34.08-170.37-68.15-255.56-102.23-.77-.31-1.52-.65-2.27-.99-1.86-.84-4.19-1.35-4.43-3.82-.3-3.05,2.49-3.54,4.45-4.39,18.72-8.15,37.49-16.18,56.23-24.3,66.42-28.78,132.84-57.57,199.26-86.36,4.18-1.81,8.24-4.02,12.62-3.22Z"/>
  <path class="cls-1" d="M299.93,413.67c-3.78.13-7.34-.72-10.86-2.13-85.52-34.27-171.06-68.49-256.59-102.72-2.27-.91-5.31-1.33-5.36-4.36-.05-3.07,3.06-3.52,5.26-4.47,32.33-14.07,64.68-28.07,96.97-42.24,3.15-1.38,5.75-1.15,8.81.08,47.04,18.92,94.13,37.69,141.15,56.63,13.95,5.62,27.59,5.57,41.57-.08,47-18.99,94.12-37.7,141.15-56.62,3.12-1.25,5.72-1.28,8.8.07,32.29,14.13,64.65,28.12,96.96,42.2,2.17.94,5.32,1.4,5.09,4.57-.21,2.97-3.23,3.35-5.49,4.26-85.53,34.23-171.06,68.47-256.58,102.75-3.53,1.41-7.11,2.12-10.88,2.07Z"/>
  <path class="cls-1" d="M299.81,534.22c-4.03.3-7.5-.86-11.01-2.27-85.38-34.18-170.78-68.29-256.17-102.44-2.22-.89-5.41-1.24-5.53-4.23-.13-3.4,3.26-3.83,5.64-4.86,32.15-13.99,64.33-27.89,96.43-42,3.43-1.51,6.2-1.09,9.41.2,46.88,18.82,93.83,37.48,140.68,56.39,13.98,5.64,27.56,5.61,41.55-.05,46.84-18.93,93.8-37.56,140.66-56.43,3.57-1.44,6.54-1.3,10,.21,31.56,13.78,63.18,27.42,94.78,41.11.76.33,1.52.65,2.25,1.03,1.96,1.03,4.63,1.58,4.39,4.51-.21,2.53-2.7,2.98-4.52,3.72-17.78,7.19-35.58,14.3-53.39,21.42-67.21,26.87-134.41,53.73-201.62,80.6-4.43,1.77-8.8,3.7-13.55,3.09Z"/>
</svg>