<?xml version="1.0" encoding="UTF-8"?>
<svg id="Layer_1" data-name="Layer 1" xmlns="http://www.w3.org/2000/svg" viewBox="0 0 600 600">
  <defs>
    <style>
      .cls-1 {
        fill: #5fbb46;
      }
    </style>
  </defs>
  <path class="cls-1" d="M576.89,134.95c-.68.86-1.21,1.64-1.84,2.32-1.02,1.1-2.1,2.13-3.16,3.19-124.12,124.1-248.27,248.18-372.28,372.38-4.28,4.29-6.4,5.28-11.33.31-53.81-54.26-107.9-108.24-162.06-162.14-3.69-3.67-4.5-5.45-.21-9.54,14.79-14.1,29.23-28.59,43.36-43.35,4.63-4.84,7.26-4.78,11.95-.04,35.75,36.16,71.83,71.99,107.62,108.11,3.89,3.92,5.82,4.44,10.08.17,106.17-106.44,212.55-212.68,318.73-319.11,4.7-4.71,7.18-5.19,11.99-.12,13.28,14.04,27.22,27.46,40.88,41.15,2.08,2.08,4.04,4.29,6.28,6.67Z"/>
</svg>